<?xml version="1.0" encoding="UTF-8" standalone="no"?>
<svg
   xmlns:dc="http://purl.org/dc/elements/1.1/"
   xmlns:cc="http://creativecommons.org/ns#"
   xmlns:rdf="http://www.w3.org/1999/02/22-rdf-syntax-ns#"
   xmlns:svg="http://www.w3.org/2000/svg"
   xmlns="http://www.w3.org/2000/svg"
   id="svg417"
   version="1.1"
   height="200"
   width="545">
  <metadata
     id="metadata423">
    <rdf:RDF>
      <cc:Work
         rdf:about="">
        <dc:format>image/svg+xml</dc:format>
        <dc:type
           rdf:resource="http://purl.org/dc/dcmitype/StillImage" />
        <dc:title></dc:title>
      </cc:Work>
    </rdf:RDF>
  </metadata>
  <defs
     id="defs421" />
  <g
     id="g371"
     class="layer">
    <title
       id="title361">Lines</title>
    <path
       id="path363"
       stroke-width="10"
       stroke="#FFFFFF"
       fill="none"
       d=" m10,10 l0,100 q0,75,75,75 l370,0" />
    <path
       id="path365"
       stroke-width="10"
       stroke="#FFFFFF"
       fill="none"
       d=" m45,70 l-15,0 l0,25 q0,50,50,50 l400,0" />
    <path
       id="path367"
       stroke-width="10"
       stroke="#FFFFFF"
       fill="none"
       d=" m55,70 l15,0 l0,40 q0,55,55,55 l380,0" />
    <path
       id="path369"
       stroke-width="10"
       stroke="#FFFFFF"
       fill="none"
       d=" m90,10 l0,85 q0,30,30,30 l420,0" />
  </g>
  <!--Lettering-->
  <g
     id="g415"
     transform="translate(120,100)">
    <g
       id="g379"
       transform="translate(0,0)"
       class="layer">
      <title
         id="title373">Letter S</title>
      <path
         id="path375"
         stroke-linejoin="round"
         stroke-width="10"
         stroke="#FFFFFF"
         fill="none"
         stroke-linecap="round"
         d=" m0,-30         l0,20         q0,10,10,10         l35,0         q10,0,10,-10         l0,-30         q0,-10,-10,-10         l-35,0         q-10,0,-10,-10         l0,-15         q0,-10,10,-10         l35,0         q10,0,10,10         l0,5" />
      <path
         id="path377"
         stroke-linejoin="round"
         stroke-width="10"
         stroke="#FFFFFF"
         fill="none"
         stroke-linecap="round"
         d=" m36,0         q10,0,10,-10         l0,-30         q0,-10,-10,-10" />
    </g>
    <g
       id="g387"
       transform="translate(80,0)"
       class="layer">
      <title
         id="title381">Letter P</title>
      <path
         id="path383"
         stroke-linejoin="round"
         stroke-width="10"
         stroke="#FFFFFF"
         fill="none"
         stroke-linecap="round"
         d=" m0,0         l0,-75         q0,-10,10,-10         l35,0         q10,0,10,10         l0,15         q0,10,-10,10         l-35,0         q-10,0,-10,-10" />
      <path
         id="path385"
         stroke-linejoin="round"
         stroke-width="10"
         stroke="#FFFFFF"
         fill="none"
         stroke-linecap="round"
         d=" m0,0         l9,0         l0,-40         q0,-10,10,-10" />
    </g>
    <g
       id="g397"
       transform="translate(160,0)"
       class="layer">
      <title
         id="title389">Letter A</title>
      <path
         id="path391"
         stroke-linejoin="round"
         stroke-width="10"
         stroke="#FFFFFF"
         fill="none"
         stroke-linecap="round"
         d=" m0,0         l0,-75         q0,-10,10,-10         l35,0         q10,0,10,10         l0,75" />
      <path
         id="path393"
         stroke-linejoin="round"
         stroke-width="10"
         stroke="#FFFFFF"
         fill="none"
         stroke-linecap="round"
         d=" m0,-60         q0,10,10,10         l35,0         q10,0,10,10         m0,-20         q0,10,-10,10" />
      <path
         id="path395"
         stroke-linejoin="round"
         stroke-width="10"
         stroke="#FFFFFF"
         fill="none"
         stroke-linecap="round"
         d=" m0,0         l9,0         l0,-40         q0,-10,10,-10" />
    </g>
    <g
       id="g405"
       transform="translate(240,0)"
       class="layer">
      <title
         id="title399">Letter C</title>
      <path
         id="path401"
         stroke-linejoin="round"
         stroke-width="10"
         stroke="#FFFFFF"
         fill="none"
         stroke-linecap="round"
         d=" m55,-25         l0,15         q0,10,-10,10         l-35,0         q-10,0,-10,-10         l0,-65         q0,-10,10,-10         l35,0         q10,0,10,10         l0,5" />
      <path
         id="path403"
         stroke-linejoin="round"
         stroke-width="10"
         stroke="#FFFFFF"
         fill="none"
         stroke-linecap="round"
         d=" m19,0         q-10,0,-10,-10         l0,-32.5         q-9,-6,-9,-12.5" />
    </g>
    <g
       id="g413"
       transform="translate(320,0)"
       class="layer">
      <title
         id="title407">Letter E</title>
      <path
         id="path409"
         stroke-linejoin="round"
         stroke-width="10"
         stroke="#FFFFFF"
         fill="none"
         stroke-linecap="round"
         d=" m55,0         l-45,0         q-10,0,-10,-10         l0,-65         q0,-10,10,-10         l45,0         m-15,35         l-40,0" />
      <path
         id="path411"
         stroke-linejoin="round"
         stroke-width="10"
         stroke="#FFFFFF"
         fill="none"
         stroke-linecap="round"
         d=" m19,0         q-10,0,-10,-10         l0,-30         q0,-10,10,-10         m-9,0         q-10,0,-10,-10" />
    </g>
  </g>
</svg>
